<svg xmlns="http://www.w3.org/2000/svg" width="383.599" height="128.102" viewBox="0 0 383.599 128.102">
  <g id="Group_17" data-name="Group 17" transform="translate(-93.91 -1123.164)">
    <g id="Laag_1" data-name="Laag 1">
      <g id="Group_2" data-name="Group 2">
        <g id="Group_1" data-name="Group 1">
          <path id="Path_1" data-name="Path 1" d="M144.979,1200.2v13.894h14.645v12.642a28.884,28.884,0,0,1-21.9,9.889c-16.146,0-29.164-9.013-29.164-30.417,0-19.151,13.018-30.416,29.164-30.416a29.25,29.25,0,0,1,7.06.864v-14.945a44.323,44.323,0,0,0-7.06-.564c-24.157,0-43.809,19.026-43.809,45.061,0,28.664,18.4,45.061,41.932,45.061,10.389,0,17.774-2.5,24.908-9.137l.751,8.261h12.768V1200.2Z" fill="#fff"/>
        </g>
      </g>
      <g id="Group_4" data-name="Group 4">
        <g id="Group_3" data-name="Group 3">
          <path id="Path_2" data-name="Path 2" d="M210.37,1125.417v11.13h-2.178v-11.13h-2.758v-2.008h7.694v2.008Z" fill="#fff"/>
        </g>
      </g>
      <g id="Group_6" data-name="Group 6">
        <g id="Group_5" data-name="Group 5">
          <path id="Path_3" data-name="Path 3" d="M224.843,1136.547h-2.2v-5.481h-5.462v5.481h-2.2v-13.138h2.2v5.443h5.462v-5.443h2.2Z" fill="#fff"/>
        </g>
      </g>
      <g id="Group_8" data-name="Group 8">
        <g id="Group_7" data-name="Group 7">
          <path id="Path_4" data-name="Path 4" d="M230.028,1128.889h5.461v2.177h-5.461v3.285H236.6v2.2h-8.765v-13.138H236.6v2.2h-6.569Z" fill="#fff"/>
        </g>
      </g>
      <g id="Group_10" data-name="Group 10">
        <g id="Group_9" data-name="Group 9">
          <path id="Path_5" data-name="Path 5" d="M230.476,1182.087V1190H205.06v-47.318h7.909v39.409Z" fill="#fff"/>
          <path id="Path_6" data-name="Path 6" d="M244.127,1184.52,242.1,1190h-8.517l18.859-48.67L271.369,1190h-8.518l-2.1-5.476Zm14.06-6.827-5.746-16.426-5.745,16.426Z" fill="#fff"/>
          <path id="Path_7" data-name="Path 7" d="M309.962,1178.167l5.543,5.61a23.49,23.49,0,0,1-16.7,6.9c-13.047,0-23.728-9.463-23.728-24.335,0-14.263,9.87-24.335,23.728-24.335a23.27,23.27,0,0,1,16.7,6.963l-5.543,5.542a15.8,15.8,0,0,0-11.153-4.6c-9.735,0-15.684,6.9-15.684,16.426,0,10.139,6.963,16.426,15.684,16.426A15.792,15.792,0,0,0,309.962,1178.167Z" fill="#fff"/>
          <path id="Path_8" data-name="Path 8" d="M360.923,1190H350.581l-14.6-17.981-4.461,5V1190h-7.909v-47.318h7.909v23.862l19.4-23.862h9.869l-19.536,24.065Z" fill="#fff"/>
        </g>
      </g>
      <g id="Group_12" data-name="Group 12">
        <g id="Group_11" data-name="Group 11">
          <path id="Path_9" data-name="Path 9" d="M153.951,1123.164h25.9q9.855.093,14.806,4.951,4.995,4.905,5,12.972a15.424,15.424,0,0,1-1.971,7.884,12.905,12.905,0,0,1-3.025,3.392,21.774,21.774,0,0,1-4.859,3.072v.183a13.459,13.459,0,0,1,8.251,5.73,18.761,18.761,0,0,1,2.613,9.672q-.093,8.664-5.41,13.7A17.85,17.85,0,0,1,182.1,1190H153.951Zm10.13,9.03v19.115H178.7q5.546,0,8.159-2.888a9.073,9.073,0,0,0,2.659-6.692,9.544,9.544,0,0,0-2.659-6.83q-2.613-2.613-8.159-2.705Zm0,28.146v20.077h15.585q5.639-.092,8.251-3.072a10.123,10.123,0,0,0,2.613-6.967,10.248,10.248,0,0,0-2.613-7.059q-2.612-2.887-8.251-2.979Z" fill="#fff"/>
        </g>
      </g>
      <g id="Group_14" data-name="Group 14">
        <g id="Group_13" data-name="Group 13">
          <path id="Path_10" data-name="Path 10" d="M191.067,1244.953l-2.028,5.475h-8.517l18.859-48.67,18.928,48.67h-8.518l-2.1-5.475Zm14.06-6.827-5.746-16.426-5.745,16.426Z" fill="#fff"/>
          <path id="Path_11" data-name="Path 11" d="M221.954,1237.315h7.909c.135,3.92,3.38,5.881,6.894,5.881,3.651,0,6.895-2.3,6.895-6.017,0-3.988-3.718-6.489-6.895-6.624a18.129,18.129,0,0,1-7.1-1.554,12.661,12.661,0,0,1-7.706-12.1c0-8.991,7.165-14.466,14.8-14.466,8.179,0,14.466,5.543,14.6,13.587h-7.841c-.135-3.921-3.177-5.679-6.76-5.679-3.718,0-6.894,2.163-6.894,6.558,0,3.92,3.38,6.016,6.894,6.016a17.9,17.9,0,0,1,7.031,1.554c5,2.3,7.706,7.1,7.706,12.708,0,9.058-7.1,13.925-14.737,13.925C228.579,1250.9,222.089,1246.17,221.954,1237.315Z" fill="#fff"/>
          <path id="Path_12" data-name="Path 12" d="M332.4,1242.519v7.909H306.979v-47.317h7.91v39.408Z" fill="#fff"/>
          <path id="Path_13" data-name="Path 13" d="M341.044,1203.111h7.909v47.317h-7.909Z" fill="#fff"/>
          <path id="Path_14" data-name="Path 14" d="M391.2,1250.428l-23.523-33.663v33.663h-7.909v-47.317h7.976l23.591,33.663v-33.663h7.842v47.317Z" fill="#fff"/>
          <path id="Path_15" data-name="Path 15" d="M417.826,1222.849H437.5v7.841H417.826v11.829h23.658v7.909H409.917v-47.317h31.567v7.908H417.826Z" fill="#fff"/>
          <path id="Path_16" data-name="Path 16" d="M447.97,1237.315h7.908c.136,3.92,3.38,5.881,6.9,5.881,3.651,0,6.895-2.3,6.895-6.017,0-3.988-3.718-6.489-6.895-6.624a18.126,18.126,0,0,1-7.1-1.554,12.66,12.66,0,0,1-7.706-12.1c0-8.991,7.165-14.466,14.8-14.466,8.179,0,14.466,5.543,14.6,13.587h-7.841c-.136-3.921-3.178-5.679-6.76-5.679-3.717,0-6.9,2.163-6.9,6.558,0,3.92,3.38,6.016,6.9,6.016a17.9,17.9,0,0,1,7.03,1.554c5,2.3,7.706,7.1,7.706,12.708,0,9.058-7.1,13.925-14.736,13.925C454.594,1250.9,448.1,1246.17,447.97,1237.315Z" fill="#fff"/>
        </g>
      </g>
    </g>
    <g id="Laag_2" data-name="Laag 2">
      <g id="Group_16" data-name="Group 16">
        <g id="Group_15" data-name="Group 15">
          <path id="Path_17" data-name="Path 17" d="M267.7,1223.844a11.847,11.847,0,1,1,18.585,13.234l8.152,5.8a21.652,21.652,0,1,0-34.888-24.842Z" fill="#fff"/>
          <path id="Path_18" data-name="Path 18" d="M257.207,1227.064c-.009.265-.02.53-.02.8a21.654,21.654,0,0,0,29.491,20.188Z" fill="#fff"/>
        </g>
      </g>
    </g>
  </g>
</svg>
